<svg width="30" height="38" viewBox="0 0 30 38" fill="none" xmlns="http://www.w3.org/2000/svg">
<path d="M14.2077 26.9971V11.4013C13.325 10.7679 12.3886 10.2929 11.3983 9.9763C10.408 9.65964 9.407 9.5013 8.39519 9.5013C7.62019 9.5013 6.85036 9.59366 6.08569 9.77839C5.32102 9.96311 4.58391 10.2402 3.87436 10.6096V26.2846C4.62783 25.9679 5.37613 25.7304 6.11927 25.5721C6.86241 25.4138 7.62105 25.3346 8.39519 25.3346C9.407 25.3346 10.3921 25.4734 11.3505 25.751C12.3089 26.0286 13.2613 26.444 14.2077 26.9971ZM15.4993 31.6679C14.466 30.6652 13.3466 29.8867 12.141 29.3325C10.9354 28.7784 9.68686 28.5013 8.39519 28.5013C7.49102 28.5013 6.60322 28.6464 5.73177 28.9367C4.86033 29.227 4.02591 29.636 3.22852 30.1638C2.77644 30.4541 2.34072 30.4409 1.92136 30.1242C1.502 29.8075 1.29189 29.3457 1.29102 28.7388V9.65963C1.29102 9.36936 1.35044 9.09227 1.46927 8.82838C1.58811 8.5645 1.7655 8.36658 2.00144 8.23463C2.99172 7.6013 4.02505 7.1263 5.10144 6.80964C6.17783 6.49297 7.27575 6.33463 8.39519 6.33463C9.98825 6.33463 11.3445 6.55894 12.4639 7.00755C13.5834 7.45616 14.7889 8.14227 16.0806 9.06588C16.3174 9.22422 16.4952 9.40894 16.614 9.62005C16.7329 9.83116 16.7919 10.1082 16.791 10.4513V26.9971C17.7382 26.4429 18.691 26.0271 19.6495 25.7494C20.6079 25.4718 21.5926 25.3336 22.6035 25.3346C23.3785 25.3346 24.1376 25.4138 24.8807 25.5721C25.6239 25.7304 26.3717 25.9679 27.1243 26.2846V7.24505C27.4473 7.377 27.765 7.52213 28.0776 7.68047C28.3902 7.8388 28.6967 8.02352 28.9973 8.23463C29.2341 8.36658 29.4119 8.5645 29.5307 8.82838C29.6495 9.09227 29.7085 9.36936 29.7077 9.65963V28.7388C29.7077 29.3457 29.4976 29.8075 29.0773 30.1242C28.6571 30.4409 28.2214 30.4541 27.7702 30.1638C26.9736 29.636 26.1397 29.227 25.2682 28.9367C24.3968 28.6464 23.5085 28.5013 22.6035 28.5013C21.3118 28.5013 20.0632 28.7784 18.8577 29.3325C17.6521 29.8867 16.5327 30.6652 15.4993 31.6679ZM20.0202 22.1679V4.7513L23.8952 3.16797V20.5846L20.0202 22.1679Z" fill="#FFA9B1"/>
</svg>
