<svg width="25" height="34" viewBox="0 0 25 34" fill="none" xmlns="http://www.w3.org/2000/svg">
<g clip-path="url(#clip0_2751_338)">
<mask id="mask0_2751_338" style="mask-type:luminance" maskUnits="userSpaceOnUse" x="0" y="0" width="25" height="34">
<path d="M25 0H0V34H25V0Z" fill="white"/>
</mask>
<g mask="url(#mask0_2751_338)">
<path d="M3.02383 34.0685C2.15522 34.0685 1.41189 33.7508 0.793862 33.1153C0.175829 32.4797 -0.133713 31.7148 -0.134766 30.8206V14.5807C-0.134766 13.6875 0.174776 12.9232 0.793862 12.2877C1.41295 11.6521 2.15627 11.3338 3.02383 11.3328H4.60314V8.08477C4.60314 5.83825 5.37331 3.92358 6.91365 2.34074C8.454 0.757891 10.316 -0.0340725 12.4996 -0.0351551C14.6833 -0.0362378 16.5458 0.755726 18.0872 2.34074C19.6286 3.92574 20.3982 5.84042 20.3961 8.08477V11.3328H21.9754C22.8441 11.3328 23.5879 11.6511 24.207 12.2877C24.8261 12.9243 25.1351 13.6886 25.134 14.5807V30.8206C25.134 31.7138 24.825 32.4787 24.207 33.1153C23.589 33.7519 22.8451 34.0696 21.9754 34.0685H3.02383ZM3.02383 30.8206H21.9754V14.5807H3.02383V30.8206ZM12.4996 25.9486C13.3682 25.9486 14.1121 25.6309 14.7312 24.9953C15.3503 24.3598 15.6593 23.5949 15.6582 22.7006C15.6572 21.8064 15.3482 21.042 14.7312 20.4076C14.1142 19.7731 13.3704 19.4548 12.4996 19.4527C11.6289 19.4505 10.8856 19.7688 10.2697 20.4076C9.65374 21.0464 9.3442 21.8107 9.34104 22.7006C9.33788 23.5906 9.64742 24.3555 10.2697 24.9953C10.8919 25.6352 11.6352 25.9529 12.4996 25.9486ZM7.76174 11.3328H17.2375V8.08477C17.2375 6.73145 16.7769 5.58112 15.8556 4.6338C14.9344 3.68648 13.8157 3.21281 12.4996 3.21281C11.1835 3.21281 10.0649 3.68648 9.14363 4.6338C8.22237 5.58112 7.76174 6.73145 7.76174 8.08477V11.3328Z" fill="#FFA9B1"/>
</g>
</g>
<defs>
<clipPath id="clip0_2751_338">
<rect width="25" height="34" fill="white"/>
</clipPath>
</defs>
</svg>
