<svg width="41" height="41" viewBox="0 0 41 41" fill="none" xmlns="http://www.w3.org/2000/svg">
<path d="M8.54167 18.7917L11.1042 11.1042H29.8958L32.4583 18.7917M29.8958 27.3333C29.2162 27.3333 28.5644 27.0634 28.0839 26.5828C27.6033 26.1022 27.3333 25.4505 27.3333 24.7708C27.3333 24.0912 27.6033 23.4394 28.0839 22.9589C28.5644 22.4783 29.2162 22.2083 29.8958 22.2083C30.5755 22.2083 31.2272 22.4783 31.7078 22.9589C32.1884 23.4394 32.4583 24.0912 32.4583 24.7708C32.4583 25.4505 32.1884 26.1022 31.7078 26.5828C31.2272 27.0634 30.5755 27.3333 29.8958 27.3333ZM11.1042 27.3333C10.4245 27.3333 9.77277 27.0634 9.29221 26.5828C8.81164 26.1022 8.54167 25.4505 8.54167 24.7708C8.54167 24.0912 8.81164 23.4394 9.29221 22.9589C9.77277 22.4783 10.4245 22.2083 11.1042 22.2083C11.7838 22.2083 12.4356 22.4783 12.9161 22.9589C13.3967 23.4394 13.6667 24.0912 13.6667 24.7708C13.6667 25.4505 13.3967 26.1022 12.9161 26.5828C12.4356 27.0634 11.7838 27.3333 11.1042 27.3333ZM32.3217 10.25C31.98 9.25917 31.0233 8.54167 29.8958 8.54167H25.625V5.125H15.375V8.54167H11.1042C9.97667 8.54167 9.02 9.25917 8.67833 10.25L5.125 20.5V34.1667C5.125 34.6197 5.30498 35.0543 5.62536 35.3746C5.94573 35.695 6.38026 35.875 6.83333 35.875H8.54167C8.99475 35.875 9.42927 35.695 9.74964 35.3746C10.07 35.0543 10.25 34.6197 10.25 34.1667V32.4583H30.75V34.1667C30.75 34.6197 30.93 35.0543 31.2504 35.3746C31.5707 35.695 32.0053 35.875 32.4583 35.875H34.1667C34.6197 35.875 35.0543 35.695 35.3746 35.3746C35.695 35.0543 35.875 34.6197 35.875 34.1667V20.5L32.3217 10.25Z" fill="#FFA9B1"/>
</svg>
