<svg width="40" height="40" viewBox="0 0 40 40" fill="none" xmlns="http://www.w3.org/2000/svg">
<path d="M20 0C31.046 0 40 8.95399 40 20C40 31.046 31.046 40 20 40C16.4655 40.0061 12.9932 39.0707 9.94002 37.29L0.0080309 40L2.71203 30.064C0.929947 27.0098 -0.00616325 23.536 3.05373e-05 20C3.05373e-05 8.95399 8.95403 0 20 0ZM13.184 10.6L12.784 10.616C12.5254 10.6338 12.2727 10.7017 12.04 10.816C11.8232 10.939 11.6251 11.0926 11.452 11.272C11.212 11.498 11.076 11.694 10.93 11.884C10.1903 12.8458 9.79197 14.0266 9.79802 15.24C9.80202 16.22 10.058 17.174 10.458 18.066C11.276 19.87 12.622 21.78 14.398 23.55C14.826 23.976 15.246 24.404 15.698 24.802C17.9049 26.7448 20.5346 28.1459 23.378 28.894L24.514 29.068C24.884 29.088 25.254 29.06 25.626 29.042C26.2084 29.0113 26.777 28.8536 27.292 28.58C27.5537 28.4447 27.8093 28.2979 28.058 28.14C28.058 28.14 28.1427 28.0826 28.308 27.96C28.578 27.76 28.744 27.618 28.968 27.384C29.136 27.2106 29.276 27.0093 29.388 26.78C29.544 26.454 29.7 25.832 29.764 25.314C29.812 24.918 29.798 24.702 29.792 24.568C29.784 24.354 29.606 24.132 29.412 24.038L28.248 23.516C28.248 23.516 26.508 22.758 25.444 22.274C25.3326 22.2255 25.2134 22.1977 25.092 22.192C24.9552 22.1777 24.8168 22.1929 24.6864 22.2368C24.556 22.2806 24.4365 22.3519 24.336 22.446C24.326 22.442 24.192 22.556 22.746 24.308C22.663 24.4195 22.5487 24.5038 22.4176 24.5501C22.2865 24.5964 22.1446 24.6026 22.01 24.568C21.8797 24.5332 21.752 24.4891 21.628 24.436C21.38 24.332 21.294 24.292 21.124 24.22C19.9758 23.7198 18.9129 23.0429 17.974 22.214C17.722 21.994 17.488 21.754 17.248 21.522C16.4612 20.7684 15.7755 19.916 15.208 18.986L15.09 18.796C15.0065 18.6676 14.9381 18.53 14.886 18.386C14.81 18.092 15.008 17.856 15.008 17.856C15.008 17.856 15.494 17.324 15.72 17.036C15.94 16.756 16.126 16.484 16.246 16.29C16.482 15.91 16.556 15.52 16.432 15.218C15.872 13.85 15.2934 12.4893 14.696 11.136C14.578 10.868 14.228 10.676 13.91 10.638C13.802 10.6247 13.694 10.614 13.586 10.606C13.3175 10.5906 13.0482 10.5933 12.78 10.614L13.184 10.6Z" fill="#1C1447"/>
</svg>
