<svg xmlns="http://www.w3.org/2000/svg" width="80" height="80" fill="none"><path fill="#141414" d="M1.96 40C1.96 18.99 18.99 1.96 40 1.96c21.01 0 38.04 17.03 38.04 38.04S61.01 78.04 40 78.04 1.96 61.01 1.96 40"/><path fill="#FFA9B1" stroke="#FFA9B1" stroke-linejoin="round" stroke-miterlimit="10" stroke-width="2.5" d="M38.14 19.67q.279-.416 1.354-1.076t2.567-1.318q1.492-.66 3.366-1.145a13.3 13.3 0 0 1 3.817-.417q2.15.07 4.129.798a16.4 16.4 0 0 1 3.643 1.874 14.8 14.8 0 0 1 2.949 2.672 14 14 0 0 1 2.047 3.192q1.041 2.428 1.353 5.308t-.243 6.107-2.15 6.662q-1.597 3.435-4.373 6.974a42.3 42.3 0 0 1-5.76 6.107 41.5 41.5 0 0 1-6.73 4.788 33.3 33.3 0 0 1-7.287 3.088q-3.747 1.075-7.425 1.006-3.747-.138-6.245-1.249-2.499-1.11-3.99-2.81-1.493-1.7-2.083-3.782a14 14 0 0 1-.555-4.095q.035-2.012.625-3.782t1.422-2.88q.417-.555 1.006-1.11.59-.555 1.145-.971.556-.417.972-.694.417-.278.555-.278.14 0 0 .347l-.45.451a3.7 3.7 0 0 0-.452.52 16.2 16.2 0 0 0-2.95 5.83q-.866 3.192-.242 6.037.625 2.846 2.845 4.823t6.384 2.117q7.149.207 14.191-3.921 7.044-4.13 13.22-11.901 2.914-3.748 4.615-7.044 1.7-3.296 2.394-6.141t.486-5.205q-.21-2.359-1.11-4.163-1.389-2.915-4.06-4.407a12.9 12.9 0 0 0-5.794-1.63 17.3 17.3 0 0 0-4.06.346q-2.047.417-3.921 1.18a17 17 0 0 0-3.435 1.874q-1.56 1.11-2.602 2.428l-1.041 1.458q-.347.486-.451.346-.105-.138.104-.485.972-1.527 1.388-2.602.416-1.076.555-1.735.14-.66.139-1.006 0-.348.139-.486Zm19.57 23.386q-.417-.348-1.041-.313-.625.035-1.041.174a11.2 11.2 0 0 0-2.325.832q-1.144.556-2.325 1.18-1.179.694-2.359 1.284a12.5 12.5 0 0 1-2.568.937q-1.803.416-3.296.104-1.491-.312-2.637-1.145a7.2 7.2 0 0 1-1.908-2.082 8 8 0 0 1-1.04-2.706q-.07-.07.034-.104.105-.036.104.104 1.18 3.192 2.984 4.094t4.025.347q.97-.208 2.081-.694t2.29-.971q1.18-.486 2.325-.937t2.325-.729q.902-.209 2.255.07 1.353.277 2.117.555Z"/></svg>