<svg xmlns="http://www.w3.org/2000/svg" width="42" height="42" fill="none"><path fill="#ECECEC" d="M21 0c11.598 0 21 9.402 21 21s-9.402 21-21 21a20.9 20.9 0 0 1-10.563-2.846L.008 42l2.84-10.433A20.9 20.9 0 0 1 0 21C0 9.402 9.402 0 21 0m-7.157 11.13-.42.017a2.1 2.1 0 0 0-.781.21 2.7 2.7 0 0 0-.617.479c-.252.237-.395.443-.549.642a5.73 5.73 0 0 0-1.188 3.524c.004 1.029.273 2.03.693 2.967.859 1.894 2.272 3.9 4.137 5.758.45.448.89.897 1.365 1.315a19.85 19.85 0 0 0 8.064 4.297l1.193.182c.388.021.777-.008 1.167-.027a4.2 4.2 0 0 0 1.75-.485q.412-.213.804-.462s.089-.06.262-.189c.284-.21.458-.36.693-.605q.266-.273.441-.634c.164-.342.328-.995.395-1.54.05-.415.036-.642.03-.783-.009-.224-.196-.457-.4-.556l-1.222-.548s-1.827-.796-2.944-1.304a1 1 0 0 0-.37-.086 1 1 0 0 0-.793.266c-.01-.004-.151.116-1.67 1.955a.735.735 0 0 1-.773.273 3 3 0 0 1-.4-.138c-.261-.11-.351-.151-.53-.227a12.6 12.6 0 0 1-3.307-2.106c-.265-.231-.51-.483-.763-.727a13.2 13.2 0 0 1-2.142-2.663l-.123-.2a2 2 0 0 1-.215-.43c-.08-.308.128-.556.128-.556s.51-.559.748-.861c.231-.294.426-.58.552-.784.248-.398.326-.808.196-1.125a172 172 0 0 0-1.823-4.286c-.124-.282-.492-.483-.825-.523a7 7 0 0 0-.34-.034 6 6 0 0 0-.847.009z"/></svg>