<svg width="65" height="65" viewBox="0 0 65 65" fill="none" xmlns="http://www.w3.org/2000/svg">
<path d="M25.7238 15.6895C29.5696 10.5328 35.3519 9.02698 40.6711 10.4759C46.4127 12.0387 51.461 16.9705 53.1375 23.8389C53.2242 24.1909 53.2991 24.543 53.3623 24.8951C50.9422 24.0328 48.3099 23.9663 45.8494 24.7055C42.3638 22.1272 38.0467 21.6939 34.209 23.1076C29.4017 24.8816 25.6479 29.3801 24.7786 35.0405C23.6681 42.288 28.0827 48.7989 34.3254 54.3347L35.3763 55.2447C34.5286 55.3043 33.6673 55.1716 32.844 54.9955C32.4209 54.9045 32.0001 54.8034 31.5819 54.6922L30.1275 54.2859C17.1979 50.6487 8.54209 44.9584 6.05855 36.4543C4.07605 29.6672 5.98272 22.872 10.1752 18.647C14.059 14.7334 19.8169 13.1464 25.7238 15.6895ZM30.1329 35.8612C31.2921 28.2995 40.0373 24.5728 44.5277 31.062C44.5708 31.1223 44.6358 31.1632 44.7088 31.1759C44.7818 31.1886 44.8569 31.172 44.9177 31.1297C51.3554 26.5689 58.2969 33.0607 56.7992 40.5628C55.9325 44.9142 51.8971 48.5253 44.6929 51.3962L43.5148 51.8566L42.8025 52.1491C42.1877 52.3901 41.5377 52.5824 40.95 52.4795C40.365 52.3766 39.8206 51.9703 39.325 51.537L38.4854 50.7787C32.2201 45.3873 29.436 40.4148 30.1329 35.8612Z" fill="#F194D4"/>
</svg>
