<svg width="52" height="52" viewBox="0 0 52 52" fill="none" xmlns="http://www.w3.org/2000/svg">
<path d="M6.48267 25.0293C6.48267 22.3946 7.00267 19.864 8.02533 17.4546C9.048 15.0453 10.452 12.9826 12.1853 11.232C13.9187 9.4813 15.9987 8.09463 18.408 7.07196C20.8173 6.0493 23.3307 5.5293 25.9827 5.5293C28.6347 5.5293 31.148 6.0493 33.5573 7.07196C35.9667 8.09463 38.0467 9.49863 39.7973 11.232C41.548 12.9653 42.9347 15.0453 43.9573 17.4546C44.98 19.864 45.5 22.3773 45.5 25.0293C45.5 27.6813 44.98 30.1946 43.9573 32.604C42.9347 35.0133 41.5307 37.0933 39.7973 38.844C38.064 40.5946 35.984 41.9813 33.5573 43.004C31.1307 44.0266 28.6173 44.5466 25.9827 44.5466C23.348 44.5466 20.8173 44.0266 18.408 43.004C15.9987 41.9813 13.936 40.5773 12.1853 38.844C10.4347 37.1106 9.048 35.0306 8.02533 32.604C7.00267 30.1773 6.48267 27.6813 6.48267 25.0293ZM8.56267 25.0293C8.56267 27.2306 8.96133 29.3453 9.776 31.3733C10.5907 33.4013 11.6653 35.1866 13.052 36.712C14.4387 38.2373 16.0853 39.5026 17.992 40.508C19.8987 41.5133 21.944 42.1373 24.0933 42.38C21.06 40.5773 18.928 38.2373 17.68 35.3253C16.432 32.4133 15.808 28.9813 15.808 25.0466C15.808 21.4586 16.5707 18.1133 18.096 15.028C19.6213 11.9426 21.736 9.4813 24.44 7.67863C22.256 7.8693 20.176 8.45863 18.2173 9.44663C16.2587 10.4346 14.5773 11.7 13.156 13.2426C11.7347 14.7853 10.6253 16.5706 9.81067 18.6333C8.996 20.696 8.56267 22.7933 8.56267 25.0293Z" fill="#F194D4"/>
</svg>
