<svg width="24" height="24" viewBox="0 0 24 24" fill="none" xmlns="http://www.w3.org/2000/svg">
<g clip-path="url(#clip0_2315_377)">
<path fill-rule="evenodd" clip-rule="evenodd" d="M0.428558 12.0001C0.428558 10.4806 0.727862 8.97586 1.30938 7.57195C1.8909 6.16804 2.74324 4.89241 3.81775 3.8179C4.89226 2.7434 6.16788 1.89105 7.57179 1.30953C8.9757 0.728015 10.4804 0.428711 12 0.428711C13.5196 0.428711 15.0243 0.728015 16.4282 1.30953C17.8321 1.89105 19.1077 2.7434 20.1822 3.8179C21.2567 4.89241 22.1091 6.16804 22.6906 7.57195C23.2721 8.97586 23.5714 10.4806 23.5714 12.0001C23.5714 15.0691 22.3523 18.0123 20.1822 20.1824C18.0122 22.3524 15.0689 23.5716 12 23.5716C8.93105 23.5716 5.98782 22.3524 3.81775 20.1824C1.64769 18.0123 0.428558 15.0691 0.428558 12.0001ZM15.8606 18.967L17.652 5.36928L3.65484 12.115L7.79827 13.6167L12.4028 10.0579C12.492 9.98908 12.5938 9.93854 12.7025 9.90911C12.8112 9.87969 12.9246 9.87196 13.0363 9.88636C13.1479 9.90077 13.2557 9.93703 13.3533 9.99307C13.451 10.0491 13.5366 10.1238 13.6054 10.213C13.6742 10.3021 13.7247 10.404 13.7542 10.5126C13.7836 10.6213 13.7913 10.7347 13.7769 10.8464C13.7625 10.9581 13.7262 11.0658 13.6702 11.1635C13.6142 11.2611 13.5394 11.3468 13.4503 11.4156L9.63084 14.3659V19.039L12.5194 16.2893L15.8606 18.967Z" fill="#F194D4"/>
</g>
<defs>
<clipPath id="clip0_2315_377">
<rect width="24" height="24" fill="white"/>
</clipPath>
</defs>
</svg>
