<svg width="31" height="31" viewBox="0 0 31 31" fill="none" xmlns="http://www.w3.org/2000/svg">
<g clip-path="url(#clip0_2751_411)">
<path d="M15.5007 30.1381C23.5847 30.1381 30.1381 23.5847 30.1381 15.5007C30.1381 7.41667 23.5847 0.863281 15.5007 0.863281C7.41667 0.863281 0.863281 7.41667 0.863281 15.5007C0.863281 23.5847 7.41667 30.1381 15.5007 30.1381Z" stroke="#FFA9B1" stroke-width="1.72521"/>
<path d="M3.89648 12.2068C4.49455 11.9975 5.02783 11.7333 5.49632 11.4144C5.96481 11.0854 6.42831 10.6418 6.88683 10.0836H7.57462V20.4452H6.60275V11.5639C6.4931 11.6835 6.34857 11.8081 6.16915 11.9377C5.9997 12.0673 5.80532 12.1968 5.58603 12.3264C5.36674 12.446 5.13748 12.5656 4.89825 12.6853C4.65902 12.7949 4.41979 12.8846 4.18056 12.9544L3.89648 12.2068ZM14.9527 20.6695C14.4642 20.6695 14.0207 20.5997 13.622 20.4602C13.2332 20.3206 12.8943 20.1263 12.6052 19.8771C12.3261 19.6179 12.1068 19.3189 11.9474 18.98C11.7978 18.6311 11.7231 18.2523 11.7231 17.8436C11.7231 17.4948 11.7729 17.1808 11.8726 16.9017C11.9723 16.6126 12.1019 16.3584 12.2614 16.1391C12.4308 15.9099 12.6202 15.7105 12.8295 15.5411C13.0488 15.3616 13.2781 15.2071 13.5173 15.0775C12.9093 14.7785 12.4956 14.4247 12.2763 14.016C12.057 13.6073 11.9474 13.1637 11.9474 12.6853C11.9474 12.2566 12.0221 11.8679 12.1716 11.519C12.3212 11.1701 12.5255 10.8761 12.7847 10.6369C13.0538 10.3877 13.3728 10.1983 13.7416 10.0687C14.1104 9.92915 14.5141 9.85938 14.9527 9.85938C15.471 9.85938 15.9196 9.93912 16.2983 10.0986C16.6771 10.2481 16.9861 10.4475 17.2253 10.6967C17.4745 10.9459 17.654 11.23 17.7636 11.5489C17.8832 11.8679 17.943 12.1968 17.943 12.5357C17.943 12.8647 17.8932 13.1687 17.7935 13.4478C17.6938 13.7169 17.5643 13.9661 17.4048 14.1954C17.2453 14.4147 17.0659 14.6091 16.8665 14.7785C16.6671 14.948 16.4728 15.0925 16.2834 15.2121C16.9811 15.5111 17.4696 15.8849 17.7487 16.3335C18.0377 16.782 18.1823 17.2555 18.1823 17.7539C18.1823 18.1825 18.1025 18.5763 17.943 18.9351C17.7935 19.2939 17.5792 19.603 17.3001 19.8621C17.021 20.1113 16.6821 20.3057 16.2834 20.4452C15.8847 20.5948 15.4411 20.6695 14.9527 20.6695ZM17.1506 17.8436C17.1506 17.415 17.0659 17.0661 16.8964 16.797C16.7369 16.5279 16.5226 16.3086 16.2535 16.1391C15.9943 15.9697 15.6953 15.8351 15.3564 15.7354C15.0274 15.6357 14.6935 15.5311 14.3546 15.4214C13.8462 15.6607 13.4525 15.9846 13.1734 16.3933C12.8943 16.792 12.7548 17.2755 12.7548 17.8436C12.7548 18.1227 12.7996 18.3819 12.8893 18.6211C12.979 18.8603 13.1136 19.0697 13.293 19.2491C13.4824 19.4285 13.7117 19.573 13.9808 19.6827C14.2599 19.7824 14.5839 19.8322 14.9527 19.8322C15.3215 19.8322 15.6405 19.7824 15.9096 19.6827C16.1887 19.573 16.4179 19.4285 16.5974 19.2491C16.7868 19.0697 16.9263 18.8603 17.016 18.6211C17.1057 18.3819 17.1506 18.1227 17.1506 17.8436ZM12.9641 12.5806C12.9641 12.8597 12.994 13.1139 13.0538 13.3431C13.1236 13.5724 13.2482 13.7817 13.4276 13.9711C13.607 14.1505 13.8562 14.32 14.1752 14.4795C14.4942 14.629 14.9128 14.7735 15.4311 14.9131C15.8897 14.6539 16.2535 14.3349 16.5226 13.9562C16.7917 13.5774 16.9263 13.1039 16.9263 12.5357C16.9263 12.3065 16.8864 12.0822 16.8067 11.8629C16.7369 11.6436 16.6223 11.4492 16.4628 11.2798C16.3133 11.1004 16.1139 10.9608 15.8647 10.8611C15.6155 10.7515 15.3115 10.6967 14.9527 10.6967C14.6237 10.6967 14.3347 10.7465 14.0855 10.8462C13.8363 10.9459 13.6269 11.0854 13.4575 11.2648C13.298 11.4343 13.1734 11.6337 13.0837 11.8629C13.004 12.0922 12.9641 12.3314 12.9641 12.5806ZM20.0132 15.7055H22.9587V12.461H23.8259V15.7055H26.7714V16.5428H23.8259V19.8023H22.9587V16.5428H20.0132V15.7055Z" fill="#FFA9B1"/>
</g>
<defs>
<clipPath id="clip0_2751_411">
<rect width="31" height="31" fill="white"/>
</clipPath>
</defs>
</svg>
