<svg width="27" height="27" viewBox="0 0 27 27" fill="none" xmlns="http://www.w3.org/2000/svg">
<g clip-path="url(#clip0_2751_414)">
<path d="M13.5 14.8493C14.3077 14.8493 15.097 15.0907 15.7664 15.5427C16.4358 15.9946 16.9548 16.6364 17.2567 17.3855C17.5586 18.1347 17.6296 18.9569 17.4605 19.7466C17.2915 20.5364 16.8901 21.2577 16.308 21.8176L13.7295 24.2974H17.55V26.9973H9.45L9.44865 24.67L14.4355 19.871C14.5965 19.7164 14.7165 19.5243 14.785 19.3118C14.8534 19.0993 14.8681 18.8732 14.8278 18.6537C14.7874 18.4342 14.6933 18.2281 14.5538 18.0539C14.4143 17.8797 14.2337 17.7428 14.0283 17.6556C13.8229 17.5681 13.5991 17.5331 13.3768 17.5534C13.1546 17.5738 12.9408 17.649 12.7547 17.7722C12.5686 17.8953 12.416 18.0628 12.3105 18.2594C12.2049 18.4561 12.1498 18.6758 12.15 18.899H9.45C9.45 17.8249 9.87669 16.795 10.6362 16.0354C11.3957 15.2759 12.4259 14.8493 13.5 14.8493ZM21.6 14.8493V20.2489H24.3V14.8493H27V26.9986H24.3V22.9488H18.9V14.8493H21.6ZM2.7 13.4994C2.69882 15.1187 3.06227 16.7174 3.76339 18.177C4.4645 19.6367 5.48528 20.9198 6.75 21.931V25.1924C4.69739 24.0075 2.99296 22.3029 1.80807 20.2503C0.623174 18.1978 -0.000413592 15.8694 2.05805e-07 13.4994H2.7ZM13.5 1.69449e-06C20.4998 1.69449e-06 26.2562 5.32684 26.9325 12.1494H24.2163C23.9421 9.97258 23.0115 7.93087 21.5482 6.29601C20.0849 4.66115 18.1585 3.51066 16.0252 2.99766C13.8919 2.48466 11.6529 2.63348 9.60627 3.42431C7.55963 4.21514 5.80239 5.61048 4.5684 7.42463H8.1V10.1245H2.05805e-07V2.0249H2.7V5.39838C3.95676 3.72104 5.58719 2.3597 7.4619 1.42239C9.33662 0.485076 11.404 -0.00104743 13.5 1.69449e-06Z" fill="#FFA9B1"/>
</g>
<defs>
<clipPath id="clip0_2751_414">
<rect width="27" height="27" fill="white"/>
</clipPath>
</defs>
</svg>
