<svg width="31" height="31" viewBox="0 0 31 31" fill="none" xmlns="http://www.w3.org/2000/svg">
<g clip-path="url(#clip0_2751_402)">
<path fill-rule="evenodd" clip-rule="evenodd" d="M12.4075 11.419C11.7195 11.1503 10.9621 11.1162 10.2527 11.3221C9.54339 11.5279 8.92182 11.9621 8.48448 12.5573C8.04714 13.1525 7.81849 13.8754 7.83402 14.6139C7.84954 15.3523 8.10837 16.065 8.57034 16.6413C9.03231 17.2176 9.67158 17.6253 10.3889 17.8011C11.1063 17.9769 11.8617 17.9111 12.5378 17.6137C13.2139 17.3164 13.7729 16.8042 14.1282 16.1566C14.4834 15.5091 14.615 14.7623 14.5025 14.0324C14.4929 13.9702 14.4957 13.9067 14.5106 13.8456C14.5256 13.7844 14.5525 13.7268 14.5897 13.6761C14.6269 13.6254 14.6738 13.5824 14.7276 13.5498C14.7814 13.5172 14.8411 13.4954 14.9033 13.4859C14.9655 13.4763 15.029 13.4791 15.0901 13.4941C15.1512 13.509 15.2088 13.5359 15.2595 13.5731C15.3103 13.6103 15.3532 13.6572 15.3858 13.711C15.4185 13.7648 15.4402 13.8245 15.4498 13.8867C15.5943 14.8252 15.425 15.7852 14.9682 16.6177C14.5113 17.4502 13.7925 18.1086 12.9232 18.4908C12.0539 18.873 11.0828 18.9576 10.1606 18.7314C9.23828 18.5053 8.41643 17.9811 7.82253 17.2402C7.22863 16.4992 6.8959 15.583 6.87595 14.6336C6.85601 13.6842 7.14997 12.7548 7.71223 11.9896C8.27448 11.2243 9.07359 10.6661 9.98555 10.4014C10.8975 10.1367 11.8713 10.1805 12.7559 10.5258C12.8153 10.5481 12.8697 10.582 12.9159 10.6254C12.9622 10.6689 12.9993 10.7212 13.0252 10.7791C13.051 10.837 13.0651 10.8995 13.0667 10.963C13.0682 11.0264 13.0571 11.0895 13.034 11.1487C13.0109 11.2078 12.9764 11.2617 12.9323 11.3074C12.8882 11.353 12.8355 11.3894 12.7772 11.4145C12.7189 11.4396 12.6562 11.4529 12.5928 11.4536C12.5293 11.4543 12.4663 11.4428 12.4075 11.419Z" fill="#FFA9B1"/>
<path fill-rule="evenodd" clip-rule="evenodd" d="M10.709 22.6875V18.8542C10.709 18.7271 10.7595 18.6052 10.8493 18.5153C10.9392 18.4255 11.0611 18.375 11.1882 18.375C11.3152 18.375 11.4371 18.4255 11.527 18.5153C11.6168 18.6052 11.6673 18.7271 11.6673 18.8542V22.6875C11.6673 22.8146 11.6168 22.9365 11.527 23.0263C11.4371 23.1162 11.3152 23.1667 11.1882 23.1667C11.0611 23.1667 10.9392 23.1162 10.8493 23.0263C10.7595 22.9365 10.709 22.8146 10.709 22.6875Z" fill="#FFA9B1"/>
<path fill-rule="evenodd" clip-rule="evenodd" d="M9.27148 20.293C9.27148 20.1659 9.32196 20.0441 9.41182 19.9542C9.50168 19.8643 9.62356 19.8138 9.75064 19.8138H12.6257C12.7527 19.8138 12.8746 19.8643 12.9645 19.9542C13.0543 20.0441 13.1048 20.1659 13.1048 20.293C13.1048 20.4201 13.0543 20.542 12.9645 20.6318C12.8746 20.7217 12.7527 20.7722 12.6257 20.7722H9.75064C9.62356 20.7722 9.50168 20.7217 9.41182 20.6318C9.32196 20.542 9.27148 20.4201 9.27148 20.293ZM17.8495 11.3149C17.3185 11.165 16.7587 11.1484 16.2198 11.2666C15.6808 11.3848 15.1793 11.6341 14.7598 11.9925C14.3402 12.3508 14.0155 12.8072 13.8145 13.321C13.6135 13.8349 13.5424 14.3904 13.6075 14.9383C13.6153 15.001 13.6106 15.0646 13.5937 15.1254C13.5768 15.1862 13.5481 15.2431 13.5092 15.2928C13.4702 15.3425 13.4219 15.384 13.3668 15.415C13.3118 15.4459 13.2512 15.4657 13.1885 15.4732C13.1258 15.4806 13.0623 15.4756 13.0015 15.4584C12.9408 15.4412 12.884 15.4122 12.8345 15.373C12.785 15.3338 12.7437 15.2852 12.7131 15.23C12.6824 15.1748 12.663 15.1141 12.6558 15.0514C12.5439 14.1084 12.7463 13.1549 13.2317 12.3387C13.7171 11.5225 14.4583 10.8893 15.3403 10.5375C16.2223 10.1856 17.1958 10.1347 18.1097 10.3927C19.0236 10.6506 19.8268 11.203 20.3947 11.9641C20.9626 12.7252 21.2634 13.6525 21.2504 14.602C21.2374 15.5515 20.9114 16.4702 20.3229 17.2155C19.7344 17.9608 18.9164 18.491 17.9958 18.7238C17.0752 18.9567 16.1034 18.8792 15.2314 18.5033C15.1736 18.4784 15.1212 18.4424 15.0774 18.3973C15.0335 18.3522 14.9989 18.2989 14.9757 18.2404C14.9287 18.1223 14.9305 17.9904 14.9808 17.8737C15.031 17.757 15.1256 17.665 15.2437 17.618C15.3618 17.571 15.4937 17.5728 15.6104 17.6231C16.032 17.8047 16.4863 17.8979 16.9454 17.8968C17.4044 17.8958 17.8583 17.8005 18.2791 17.6169C18.6998 17.4333 19.0784 17.1654 19.3913 16.8296C19.7043 16.4937 19.945 16.0973 20.0986 15.6647C20.2521 15.2321 20.3152 14.7726 20.284 14.3146C20.2528 13.8566 20.1279 13.4099 19.9171 13.0022C19.7063 12.5944 19.414 12.2343 19.0583 11.944C18.7027 11.6538 18.2913 11.4397 17.8495 11.3149Z" fill="#FFA9B1"/>
<path fill-rule="evenodd" clip-rule="evenodd" d="M19.7126 12.2457C19.6228 12.1559 19.5723 12.034 19.5723 11.9069C19.5723 11.7799 19.6228 11.658 19.7126 11.5682L23.3064 7.97441C23.3506 7.92865 23.4035 7.89214 23.4619 7.86703C23.5204 7.84192 23.5833 7.8287 23.6469 7.82814C23.7105 7.82759 23.7736 7.83972 23.8325 7.86381C23.8914 7.8879 23.9449 7.92348 23.9899 7.96847C24.0349 8.01346 24.0704 8.06696 24.0945 8.12585C24.1186 8.18474 24.1307 8.24783 24.1302 8.31146C24.1296 8.37508 24.1164 8.43796 24.0913 8.49642C24.0662 8.55488 24.0297 8.60775 23.9839 8.65195L20.3902 12.2457C20.3003 12.3355 20.1785 12.386 20.0514 12.386C19.9243 12.386 19.8025 12.3355 19.7126 12.2457Z" fill="#FFA9B1"/>
<path fill-rule="evenodd" clip-rule="evenodd" d="M23.6101 11.1885C23.5472 11.1877 23.485 11.1745 23.4272 11.1497C23.3694 11.1249 23.317 11.0889 23.2731 11.0438C23.2292 10.9987 23.1946 10.9454 23.1713 10.887C23.1479 10.8285 23.1364 10.7661 23.1372 10.7031L23.1611 8.79892L21.2569 8.82288C21.1298 8.82453 21.0073 8.77562 20.9163 8.68693C20.8253 8.59824 20.7732 8.47702 20.7715 8.34994C20.7699 8.22286 20.8188 8.10032 20.9075 8.00929C20.9962 7.91827 21.1174 7.8662 21.2445 7.86454L24.1319 7.82812L24.0955 10.7156C24.0947 10.7785 24.0815 10.8407 24.0567 10.8985C24.0318 10.9563 23.9959 11.0087 23.9508 11.0526C23.9057 11.0965 23.8524 11.1311 23.794 11.1545C23.7355 11.1778 23.673 11.1894 23.6101 11.1885Z" fill="#FFA9B1"/>
<path d="M8.82227 21.8242L21.8222 8.82422" stroke="#FF0000" stroke-width="0.5"/>
<path d="M22.1777 21.8242L9.17771 8.8242" stroke="#FF0000" stroke-width="0.5"/>
<path d="M15.5007 30.1381C23.5847 30.1381 30.1381 23.5847 30.1381 15.5007C30.1381 7.41667 23.5847 0.863281 15.5007 0.863281C7.41667 0.863281 0.863281 7.41667 0.863281 15.5007C0.863281 23.5847 7.41667 30.1381 15.5007 30.1381Z" stroke="#FFA9B1" stroke-width="1.72521"/>
</g>
<defs>
<clipPath id="clip0_2751_402">
<rect width="31" height="31" fill="white"/>
</clipPath>
</defs>
</svg>
