<svg width="54" height="54" viewBox="0 0 54 54" fill="none" xmlns="http://www.w3.org/2000/svg">
<circle cx="26.5204" cy="26.5204" r="26.5204" fill="#FFD936"/>
<path d="M26.5002 26.4998C27.3022 26.4998 27.9891 26.2145 28.5608 25.6438C29.1325 25.0731 29.4178 24.3862 29.4168 23.5832C29.4159 22.7801 29.1305 22.0937 28.5608 21.524C27.9911 20.9543 27.3042 20.6684 26.5002 20.6665C25.6961 20.6646 25.0097 20.9504 24.441 21.524C23.8722 22.0976 23.5864 22.784 23.5835 23.5832C23.5806 24.3823 23.8664 25.0692 24.441 25.6438C25.0156 26.2184 25.702 26.5037 26.5002 26.4998ZM26.5002 37.2186C29.4654 34.4964 31.6651 32.0235 33.0991 29.8C34.5331 27.5766 35.2502 25.6015 35.2502 23.8748C35.2502 21.2255 34.4058 19.0565 32.717 17.3678C31.0283 15.679 28.956 14.8341 26.5002 14.8332C24.0443 14.8322 21.9725 15.6771 20.2847 17.3678C18.597 19.0584 17.7521 21.2275 17.7502 23.8748C17.7502 25.6005 18.4672 27.5756 19.9012 29.8C21.3352 32.0245 23.5349 34.4973 26.5002 37.2186ZM26.5002 41.0832C22.587 37.7533 19.6645 34.6607 17.7327 31.8053C15.8009 28.9498 14.8345 26.3064 14.8335 23.8748C14.8335 20.229 16.0065 17.3245 18.3525 15.1613C20.6984 12.9981 23.4143 11.9165 26.5002 11.9165C29.586 11.9165 32.3024 12.9981 34.6493 15.1613C36.9963 17.3245 38.1688 20.229 38.1668 23.8748C38.1668 26.3054 37.2009 28.9489 35.2691 31.8053C33.3373 34.6616 30.4143 37.7543 26.5002 41.0832Z" fill="black"/>
</svg>
