<svg width="54" height="54" viewBox="0 0 54 54" fill="none" xmlns="http://www.w3.org/2000/svg">
<circle cx="26.5204" cy="26.5204" r="26.5204" fill="#FFD936"/>
<path d="M36.9375 38.25H38.25V30.9062L32 29.625L28.375 33.25C27.5417 32.7708 26.7654 32.2554 26.0463 31.7037C25.3271 31.1521 24.6658 30.5737 24.0625 29.9688C23.4167 29.3438 22.8125 28.6667 22.25 27.9375C21.6875 27.2083 21.1771 26.4375 20.7188 25.625L24.2812 22.0312L23.125 15.75H15.75V17.0625C15.75 19.6875 16.3125 22.2708 17.4375 24.8125C18.5625 27.3542 20.1667 29.6667 22.25 31.75C24.3333 33.8333 26.6508 35.4375 29.2025 36.5625C31.7542 37.6875 34.3325 38.25 36.9375 38.25Z" fill="black"/>
</svg>
