<svg width="54" height="54" viewBox="0 0 54 54" fill="none" xmlns="http://www.w3.org/2000/svg">
<circle cx="26.5204" cy="26.5204" r="26.5204" fill="#FFD936"/>
<path d="M40.333 26.5202C40.333 34.149 34.149 40.333 26.5202 40.333C18.8915 40.333 12.7075 34.149 12.7075 26.5202C12.7075 18.8915 18.8915 12.7075 26.5202 12.7075C34.149 12.7075 40.333 18.8915 40.333 26.5202ZM27.0147 22.9041C25.6721 23.463 22.9874 24.6201 18.9605 26.3752C18.3058 26.6349 17.9633 26.889 17.9329 27.1377C17.8804 27.5576 18.4067 27.7233 19.1235 27.9485L19.4246 28.0452C20.1291 28.2745 21.0794 28.5424 21.5725 28.5535C22.0201 28.5627 22.5192 28.3785 23.0698 28.001C26.8324 25.4594 28.7745 24.1753 28.896 24.1486C28.9831 24.1293 29.1018 24.1044 29.182 24.1762C29.2635 24.2481 29.2552 24.3834 29.2469 24.4207C29.1944 24.6431 27.128 26.5644 26.0589 27.5576C25.7421 27.8559 25.4277 28.1566 25.1155 28.4596C24.4608 29.0908 23.969 29.5646 25.1431 30.3381C26.3324 31.1226 27.5327 31.9044 28.693 32.7318C29.2648 33.1407 29.7787 33.5053 30.4141 33.4487C30.7829 33.4142 31.1641 33.0675 31.3575 32.0315C31.816 29.5867 32.7153 24.2853 32.9224 22.1002C32.9345 21.9189 32.9266 21.7369 32.899 21.5573C32.8826 21.4128 32.8126 21.2797 32.7028 21.1844C32.5371 21.049 32.2815 21.0214 32.1683 21.0228C31.6489 21.0324 30.8519 21.3087 27.0161 22.9041" fill="black"/>
</svg>
