<svg width="54" height="54" viewBox="0 0 54 54" fill="none" xmlns="http://www.w3.org/2000/svg">
<circle cx="26.5204" cy="27.4794" r="26.5204" fill="#FFD936"/>
<path d="M37.1415 16.8519C35.7601 15.464 34.1149 14.3635 32.3018 13.6146C30.4887 12.8657 28.5439 12.4834 26.5808 12.4898C18.3553 12.4898 11.6513 19.1603 11.6513 27.3447C11.6513 29.9679 12.3443 32.5162 13.6399 34.7646L11.5308 42.4694L19.44 40.4008C21.6244 41.585 24.08 42.2145 26.5808 42.2145C34.8064 42.2145 41.5104 35.5441 41.5104 27.3597C41.5104 23.3874 39.9587 19.6549 37.1415 16.8519ZM26.5808 39.6963C24.3512 39.6963 22.1667 39.0967 20.2535 37.9724L19.8015 37.7026L15.1012 38.9318L16.3516 34.3749L16.0503 33.9102C14.8113 31.9421 14.1535 29.667 14.1521 27.3447C14.1521 20.5393 19.7262 14.9931 26.5658 14.9931C29.8801 14.9931 32.9986 16.2822 35.3337 18.6206C36.4901 19.7657 37.4065 21.1277 38.0298 22.6279C38.653 24.1281 38.9707 25.7364 38.9644 27.3597C38.9945 34.165 33.4204 39.6963 26.5808 39.6963ZM33.3903 30.4626C33.0136 30.2827 31.1757 29.3833 30.8443 29.2484C30.4978 29.1285 30.2567 29.0685 30.0006 29.4283C29.7445 29.803 29.0364 30.6424 28.8255 30.8823C28.6146 31.1371 28.3886 31.1671 28.012 30.9722C27.6354 30.7923 26.4302 30.3876 25.0141 29.1285C23.8992 28.1391 23.161 26.925 22.9351 26.5502C22.7242 26.1755 22.9049 25.9806 23.1008 25.7858C23.2665 25.6209 23.4774 25.3511 23.6582 25.1412C23.839 24.9313 23.9143 24.7664 24.0348 24.5266C24.1553 24.2718 24.0951 24.0619 24.0047 23.8821C23.9143 23.7022 23.161 21.8734 22.8597 21.1239C22.5584 20.4044 22.2421 20.4944 22.0161 20.4794H21.293C21.0369 20.4794 20.6452 20.5693 20.2987 20.9441C19.9672 21.3188 19.0031 22.2182 19.0031 24.0469C19.0031 25.8757 20.3439 27.6445 20.5246 27.8843C20.7054 28.1391 23.161 31.8866 26.8972 33.4905C27.786 33.8802 28.479 34.1051 29.0214 34.27C29.9102 34.5548 30.7237 34.5098 31.3715 34.4199C32.0947 34.3149 33.5861 33.5205 33.8874 32.6511C34.2038 31.7817 34.2038 31.0472 34.0983 30.8823C33.9929 30.7174 33.7669 30.6424 33.3903 30.4626Z" fill="black"/>
</svg>
