<svg width="34" height="34" viewBox="0 0 34 34" fill="none" xmlns="http://www.w3.org/2000/svg">
<path d="M5.67593 17.4966L5.66602 17.355C5.66568 17.098 5.75851 16.8496 5.9273 16.6558C6.09609 16.462 6.32941 16.3359 6.58402 16.301L6.72852 16.291L24.7145 16.2925L20.1514 11.7308C19.9715 11.5509 19.8621 11.3124 19.8431 11.0587C19.8241 10.8049 19.8968 10.5528 20.048 10.3481L20.15 10.2291C20.33 10.0488 20.5688 9.93917 20.8228 9.92019C21.0769 9.90121 21.3293 9.97414 21.5341 10.1257L21.6531 10.2277L28.0281 16.5985C28.208 16.7784 28.3174 17.0169 28.3364 17.2706C28.3554 17.5243 28.2827 17.7765 28.1315 17.9811L28.0281 18.1001L21.6531 24.4808C21.4633 24.6691 21.2094 24.779 20.9421 24.7884C20.6749 24.7978 20.4139 24.7061 20.2113 24.5316C20.0087 24.357 19.8793 24.1125 19.8491 23.8468C19.8188 23.5811 19.8898 23.3138 20.048 23.0981L20.15 22.9791L24.7088 18.4175H6.72852C6.47134 18.4174 6.22292 18.324 6.02936 18.1546C5.8358 17.9853 5.71022 17.7515 5.67593 17.4966Z" fill="white"/>
</svg>
