<svg width="34" height="34" viewBox="0 0 34 34" fill="none" xmlns="http://www.w3.org/2000/svg">
<path d="M28.3241 17.4966L28.334 17.355C28.3343 17.098 28.2415 16.8496 28.0727 16.6558C27.9039 16.462 27.6706 16.3359 27.416 16.301L27.2715 16.291L9.28548 16.2925L13.8486 11.7308C14.0285 11.5509 14.1379 11.3124 14.1569 11.0587C14.1759 10.8049 14.1032 10.5528 13.952 10.3481L13.85 10.2291C13.67 10.0488 13.4312 9.93917 13.1772 9.92019C12.9231 9.90121 12.6707 9.97414 12.4659 10.1257L12.3469 10.2277L5.9719 16.5985C5.79196 16.7784 5.68255 17.0169 5.66358 17.2706C5.6446 17.5243 5.71731 17.7765 5.86848 17.9811L5.9719 18.1001L12.3469 24.4808C12.5367 24.6691 12.7906 24.779 13.0579 24.7884C13.3251 24.7978 13.5861 24.7061 13.7887 24.5316C13.9913 24.357 14.1207 24.1125 14.1509 23.8468C14.1812 23.5811 14.1102 23.3138 13.952 23.0981L13.85 22.9791L9.29115 18.4175H27.2715C27.5287 18.4174 27.7771 18.324 27.9706 18.1546C28.1642 17.9853 28.2898 17.7515 28.3241 17.4966Z" fill="black"/>
</svg>
