<svg width="50" height="50" viewBox="0 0 50 50" fill="none" xmlns="http://www.w3.org/2000/svg">
<path d="M10.3959 8.31341C9.98146 8.31351 9.57647 8.43722 9.2327 8.66871C8.88893 8.90019 8.622 9.22894 8.46605 9.61293C8.3101 9.99691 8.2722 10.4187 8.35721 10.8243C8.44222 11.2299 8.64627 11.601 8.94327 11.8901L22.0536 25.0004L8.94327 38.1108C8.74333 38.3027 8.58369 38.5327 8.47373 38.7871C8.36376 39.0415 8.30566 39.3154 8.30284 39.5925C8.30002 39.8697 8.35253 40.1446 8.4573 40.4013C8.56207 40.6579 8.71699 40.891 8.91299 41.087C9.10899 41.283 9.34212 41.4379 9.59874 41.5427C9.85536 41.6475 10.1303 41.7 10.4075 41.6972C10.6846 41.6943 10.9585 41.6362 11.2129 41.5263C11.4673 41.4163 11.6973 41.2567 11.8892 41.0567L24.9996 27.9464L38.1099 41.0567C38.3019 41.2567 38.5318 41.4163 38.7863 41.5263C39.0407 41.6363 39.3145 41.6944 39.5917 41.6972C39.8689 41.7 40.1438 41.6475 40.4004 41.5427C40.6571 41.4379 40.8902 41.283 41.0862 41.087C41.2822 40.891 41.4371 40.6579 41.5419 40.4013C41.6466 40.1446 41.6992 39.8697 41.6963 39.5925C41.6935 39.3154 41.6354 39.0415 41.5254 38.7871C41.4155 38.5327 41.2558 38.3027 41.0559 38.1108L27.9455 25.0004L41.0559 11.8901C41.3569 11.5974 41.5626 11.2207 41.6458 10.8092C41.7291 10.3977 41.6861 9.97063 41.5224 9.584C41.3588 9.19736 41.0822 8.86917 40.7288 8.64245C40.3755 8.41572 39.9619 8.30103 39.5422 8.31341C39.001 8.32953 38.4873 8.55574 38.1099 8.9441L24.9996 22.0545L11.8892 8.9441C11.6951 8.74453 11.4629 8.5859 11.2064 8.47757C10.9499 8.36924 10.6743 8.31342 10.3959 8.31341Z" fill="white"/>
</svg>
